<svg width="20" height="16" viewBox="0 0 20 16" fill="none" xmlns="http://www.w3.org/2000/svg">
<path d="M16.6699 1.92814C18.8357 5.11245 19.9053 8.70427 19.5054 12.8393C19.5038 12.8568 19.4946 12.8728 19.4803 12.8834C17.8402 14.0877 16.2511 14.8186 14.6844 15.3033C14.6722 15.307 14.6591 15.3068 14.647 15.3027C14.635 15.2986 14.6245 15.2908 14.617 15.2805C14.2551 14.7769 13.9262 14.2459 13.638 13.6883C13.6215 13.6555 13.6366 13.6159 13.6706 13.603C14.193 13.4062 14.6896 13.1703 15.1674 12.8911C15.205 12.869 15.2074 12.8151 15.1727 12.7892C15.0713 12.7139 14.9708 12.6348 14.8747 12.5557C14.8567 12.5411 14.8325 12.5382 14.8121 12.548C11.7105 13.9803 8.31287 13.9803 5.17459 12.548C5.15421 12.5389 5.13 12.542 5.1125 12.5564C5.01662 12.6355 4.91594 12.7139 4.8155 12.7892C4.78074 12.8151 4.78362 12.869 4.82149 12.8911C5.29924 13.165 5.79591 13.4062 6.31752 13.604C6.35132 13.6169 6.36738 13.6555 6.35061 13.6883C6.06871 14.2466 5.73982 14.7776 5.37115 15.2812C5.35509 15.3016 5.32872 15.3109 5.30379 15.3033C3.74447 14.8186 2.15543 14.0877 0.515336 12.8834C0.501672 12.8728 0.491844 12.8561 0.490406 12.8386C0.156249 9.26184 0.837266 5.6403 3.3233 1.92742C3.3293 1.91759 3.3384 1.90992 3.34895 1.90537C4.57219 1.34397 5.88269 0.930947 7.2524 0.695072C7.27733 0.691236 7.30226 0.702743 7.3152 0.724796C7.48444 1.02443 7.67788 1.40869 7.80876 1.72271C9.25254 1.50218 10.7188 1.50218 12.1928 1.72271C12.3237 1.4154 12.5104 1.02443 12.679 0.724796C12.685 0.713855 12.6943 0.705091 12.7055 0.699753C12.7168 0.694415 12.7295 0.692776 12.7418 0.695072C14.1122 0.931666 15.4227 1.34469 16.645 1.90537C16.6558 1.90992 16.6646 1.91759 16.6699 1.92814ZM8.54276 8.72872C8.55786 7.67136 7.78695 6.79642 6.81924 6.79642C5.85944 6.79642 5.09596 7.66369 5.09596 8.72872C5.09596 9.79352 5.87454 10.6608 6.81924 10.6608C7.77928 10.6608 8.54276 9.79352 8.54276 8.72872ZM14.9147 8.72872C14.9298 7.67136 14.1589 6.79642 13.1915 6.79642C12.2314 6.79642 11.4679 7.66369 11.4679 8.72872C11.4679 9.79352 12.2465 10.6608 13.1915 10.6608C14.1589 10.6608 14.9147 9.79352 14.9147 8.72872Z" fill="#5865F2"/>
</svg>
