<svg width="156" height="91" viewBox="0 0 156 91" fill="none" xmlns="http://www.w3.org/2000/svg">
<path fill-rule="evenodd" clip-rule="evenodd" d="M24.3113 15.4401C13.9655 20.6549 6.04711 31.4063 8.23344 43.1897C9.92092 52.2845 14.6998 56.7506 23.0939 58.3896L21.6025 43.8427C21.5845 43.6673 21.6092 43.4973 21.6845 43.3379C25.6008 35.0515 38.628 27.2749 54.4239 21.7875C52.3555 17.892 49.3839 15.3552 44.8914 13.3302C37.3168 9.9159 28.9431 13.1054 24.3113 15.4401ZM124.4 65.3389C127.836 62.4578 130.581 59.2668 132.429 55.7789C134.016 56.9323 135.43 57.4575 137.097 57.4504C137.678 57.448 138.29 57.3808 138.95 57.253C143.563 56.3602 145.701 51.8899 145.769 47.0094C145.789 45.5403 145.563 44.024 145.124 42.5955C143.852 38.4564 140.788 35.0534 136.737 35.664C134.244 36.0395 132.7 37.0199 131.247 39.1486L130.326 26.1906C130.317 26.063 130.284 25.9387 130.226 25.8245C128.111 21.6312 124.046 18.6569 118.681 16.7191C122.424 12.8843 127.086 10.671 133.075 10.912C143.43 11.3288 150.542 24.1198 151.53 33.7578C152.518 43.3957 149.36 52.7985 145.83 56.7425C140.629 62.5531 133.721 66.5545 127.875 66.1799C126.716 66.1057 125.551 65.8136 124.4 65.3389Z" fill="#7504FB" fill-opacity="0.54"/>
<path d="M132.429 55.7789C118.54 81.9882 54.0535 91.4408 25.6349 78.5046C25.316 78.3594 25.1104 78.0586 25.0747 77.7101L24.658 73.6454M132.429 55.7789C132.285 53.7544 132.161 52.0072 132.044 50.3644M132.429 55.7789C134.016 56.9322 135.43 57.4575 137.097 57.4504M29.4157 54.2635C30.5529 54.6865 31.6525 55.0784 32.7214 55.4404M125.865 35.6099C125.138 36.8422 124.495 37.7323 123.724 38.4903M32.7214 55.4404C44.4878 59.4253 52.5308 59.7791 66.0309 57.9483C66.5928 57.8721 67.1105 58.2745 67.1684 58.8387L68.7317 74.0877C68.783 74.5874 69.1928 74.9723 69.6951 74.9792C89.1763 75.2457 114.213 66.7934 122.169 57.1144C122.333 56.9147 122.402 56.6618 122.376 56.4046L120.824 41.2637C120.783 40.8687 120.981 40.489 121.322 40.285C122.306 39.6954 123.062 39.1416 123.724 38.4903M32.7214 55.4404C35.0705 48.1967 39.4344 43.9156 44.4178 45.26M46.9728 46.4251C46.1081 45.8699 45.2542 45.4857 44.4178 45.26M44.4178 45.26C49.8035 38.1552 57.1068 35.4511 63.0586 38.8544M66.3295 41.5188C65.3051 40.3951 64.207 39.5111 63.0586 38.8544M63.0586 38.8544C69.9605 29.741 79.9082 27.4796 83.8321 33.4912M85.1219 36.5924C84.8337 35.3857 84.3949 34.3534 83.8321 33.4912M83.8321 33.4912C91.4364 29.7632 100.14 30.6249 103.019 36.199M103.972 41.3606C104.105 39.3347 103.75 37.6148 103.019 36.199M103.019 36.199C111.685 30.7779 120.901 31.0543 123.724 38.4903M74.6961 59.1657C77.9989 56.3066 82.1868 55.507 85.5586 56.4937M91.5181 64.2585C91.373 60.1322 88.8561 57.4587 85.5586 56.4937M85.5586 56.4937C90.403 48.5003 100.58 48.4833 101.236 54.8864M28.0028 71.5494L28.319 74.6336M30.8386 68.1421L31.0757 70.4553M33.629 75.2579L33.8464 77.3783M57.1342 63.3036L59.9153 63.0185M63.0672 62.6953L63.3439 65.3939M118.86 22.1087L119.097 24.4218M123.48 25.1412L123.776 28.0326M23.9465 66.7061L21.6025 43.8427C21.5845 43.6673 21.6092 43.4973 21.6845 43.3379C32.8054 19.8071 117.395 0.387279 130.226 25.8245C130.284 25.9387 130.317 26.063 130.326 26.1906C130.415 27.4367 130.915 34.4816 131.247 39.1485M23.9465 66.7061L15.3552 70.1393C14.9963 70.2827 14.5867 70.2064 14.286 69.9637C13.382 69.2342 11.3843 67.818 9.85568 68.1507C7.59105 68.6437 5.57695 70.6875 6.23128 73.0024C6.54988 74.1295 7.87378 74.623 9.17841 74.8303C10.1151 74.9792 10.7362 76.3613 10.2466 77.1736C9.73141 78.0282 9.35703 79.0046 9.55817 79.8684C10.0439 81.9542 11.7669 83.2057 13.8272 83.1316C16.0786 83.0507 17.1044 78.9335 17.4024 77.443C17.4686 77.1115 17.6842 76.827 17.9918 76.6867L24.658 73.6454M23.9465 66.7061L24.658 73.6454M131.247 39.1485C132.7 37.0199 134.244 36.0395 136.737 35.6639C140.788 35.0534 143.852 38.4564 145.124 42.5955M131.247 39.1485C131.565 43.6186 131.786 46.737 132.044 50.3644M132.044 50.3644C132.044 50.3644 134.796 49.188 136.325 49.9255C138.912 51.1721 137.097 57.4504 137.097 57.4504M137.097 57.4504C137.678 57.448 138.29 57.3808 138.95 57.253C143.563 56.3602 145.701 51.8899 145.769 47.0094C145.789 45.5403 145.563 44.024 145.124 42.5955M141.199 37.1543C141.199 37.1543 135.972 40.9984 136.388 45.0495C136.585 46.977 137.682 48.4857 139.465 47.6557C141.074 46.9064 143.361 41.9553 145.124 42.5955" stroke="black" stroke-width="5" stroke-linecap="round"/>
</svg>
