<svg width="148" height="127" viewBox="0 0 148 127" fill="none" xmlns="http://www.w3.org/2000/svg">
<path d="M125.724 87.1029L101.606 124.094C68.1676 116.137 18.8682 88.9005 2.92956 64.9758L23.1978 26.6827M125.724 87.1029C127.304 84.3659 117.496 71.7623 114.454 72.6218M125.724 87.1029C124.528 89.1732 120.581 89.3999 114.77 88.14M23.1978 26.6827C26.6452 20.7116 52.5226 29.8111 80.4728 45.9482C83.3614 47.616 86.4111 49.4182 89.1271 51.1305C89.0281 53.6632 89.0946 55.142 89.4923 57.9033M23.1978 26.6827C21.7309 29.2234 24.5611 34.0831 30.4502 40.0714M23.1978 26.6827C22.4576 28.7544 22.8594 30.1709 24.6227 33.0263M24.6227 33.0263C28.0702 27.0551 57.8182 38.3894 89.4923 57.9033M24.6227 33.0263C26.5655 35.8987 27.8129 37.4535 30.4502 40.0714M89.4923 57.9033L91.2274 65.0394M77.9875 73.0967C92.5064 80.7579 105.84 86.204 114.77 88.14M54.4398 59.1637C44.3919 52.4614 36.042 45.7576 30.4502 40.0714M30.4502 40.0714C30.4502 40.0714 37.1045 36.8895 40.4411 38.7852C42.2674 39.8228 42.3679 41.9345 43.9794 43.2817C45.8911 44.8799 47.5087 45.9927 49.9959 46.142C52.9604 46.3199 54.9873 43.1936 58.0663 46.5074C60.5256 49.1541 56.207 49.7279 59.9231 51.26C65.6932 53.6389 68.5864 51.661 73.8773 54.7157C75.603 55.712 74.5295 58.1408 76.097 59.3711C76.8248 59.9424 79.5909 59.7266 83.1405 60.9839C86.7962 62.2789 91.2274 65.0394 91.2274 65.0394M91.2274 65.0394C91.2274 65.0394 83.314 44.2146 97.9538 34.264C102.813 30.9612 106.812 27.4832 112.273 29.6492C116.738 31.4199 121.067 34.8956 124.003 39.0821M91.2274 65.0394C93.9497 75.1993 103.045 81.9795 114.818 87.7686M65.6194 59.4563C65.6194 59.4563 69.3301 57.746 70.8226 60.0066C71.4772 60.9979 70.4502 62.2453 72.1577 63.5379C74.1669 65.0588 76.6969 65.2384 76.6969 65.2384M114.454 72.6218C118.263 60.712 126.502 60.2545 127.629 51.3968C128.163 47.1995 126.648 42.8525 124.003 39.0821M114.454 72.6218C112.136 79.8713 112.202 81.9292 114.818 87.7686M114.77 88.14L114.818 87.7686M124.003 39.0821C124.003 39.0821 132.852 40.2063 137.914 42.6127C143.931 45.4729 147.019 48.1109 144.247 50.7696C142.185 52.7465 140.513 50.861 136.373 48.4704C131.121 45.4383 124.003 39.0821 124.003 39.0821ZM98.724 61.0862C98.724 61.0862 98.724 54.7112 101.674 49.6008C102.737 47.7605 107.247 42.1381 109.906 43.3117C112.799 44.5883 113.669 48.3411 112.638 51.3299C112.025 53.1059 109.292 55.5323 109.292 55.5323M14.9679 54.7499C14.1153 55.6035 13.5977 56.4789 12.5772 58.8905M23.2753 61.0797C22.6756 62.7966 22.0995 63.6061 20.5574 64.7248M13.744 63.2447C12.6187 64.6132 12.2236 65.3662 11.7518 66.6953M106.341 96.7688C105.169 98.1667 104.606 99.1063 103.817 101.14M112.953 93.2842C112.234 95.1021 111.73 95.9161 110.721 97.1508M27.7611 8.1538C29.6458 10.4655 30.4598 11.8954 31.2898 14.7919M40.9305 2.87501C41.3852 6.33483 41.3853 8.21105 40.8924 11.4411M52.7857 11.5599C50.8747 14.2759 49.9797 15.7883 48.8013 18.4611M49.9597 76.486C49.9597 76.486 49.8005 71.9199 47.6784 70.8748C45.4372 69.7711 42.5244 70.5668 41.6072 72.8905C40.7303 75.1118 44.6498 77.7143 44.2513 78.4044C43.8529 79.0946 39.144 77.1569 37.8884 79.3316C36.6329 81.5063 38.1086 84.0221 40.2669 85.3056C42.9178 86.882 47.7896 82.901 47.7896 82.901L65.0424 92.8619C65.0424 92.8619 64.8952 98.5519 67.4826 99.7917C69.864 100.933 73.1677 100.543 74.0139 98.0416C74.733 95.9159 70.9357 93.8107 71.467 92.8905C71.9982 91.9704 75.8342 94.0385 77.3342 92.2907C78.7253 90.6698 78.6777 88.5516 77.4245 86.8219C75.5986 84.3018 69.5129 87.775 69.5129 87.775L49.9597 76.486Z" stroke="#7504FB" stroke-opacity="0.54" stroke-width="5" stroke-linecap="round"/>
</svg>
