<svg width="161" height="147" viewBox="0 0 161 147" fill="none" xmlns="http://www.w3.org/2000/svg">
<path fill-rule="evenodd" clip-rule="evenodd" d="M116.26 49.3904C116.117 49.1269 115.97 48.8647 115.82 48.6038C112.604 43.0334 108.01 38.6391 102.504 35.4895C102.489 35.7514 102.466 36.0205 102.439 36.2958C102.162 39.1196 97.7331 40.749 95.6585 41.5124C95.0673 41.7299 94.6672 41.8771 94.609 41.9616C94.3461 42.3424 93.3208 50.2631 93.3208 50.2631C93.5999 49.7928 93.7342 49.3 93.8688 48.8062C94.0955 47.9748 94.3229 47.1403 95.2436 46.4047C96.5188 45.3857 97.3325 44.8986 98.8982 45.2108C99.0914 45.2493 99.2783 45.2769 99.4558 45.3031C100.212 45.4149 100.799 45.5015 100.976 46.3015C101.162 47.1419 101.268 47.9888 101.374 48.8293C101.524 50.0201 101.673 51.1983 102.042 52.3277C102.103 52.5134 102.161 52.7012 102.22 52.8894C102.731 54.5179 103.248 56.1684 104.982 56.5847C106.886 57.0418 107.417 55.5614 108.075 53.7237L108.106 53.6359C108.479 52.5976 107.781 51.9889 107.105 51.3991C106.411 50.7941 105.74 50.2089 106.269 49.2C106.614 48.5429 107.335 47.6775 108.062 47.707C110.013 47.786 112.765 48.285 116.26 49.3904ZM118.708 55.0466C118.639 55.1609 118.569 55.2743 118.5 55.3868C117.82 56.4922 117.194 57.5094 118.098 58.4023C118.654 58.9511 119.185 59.0245 119.732 58.8492C119.462 57.5649 119.121 56.296 118.708 55.0466ZM45.2717 120.227C35.2174 117.55 26.7569 111.699 21.7014 102.943C9.81626 82.3574 21.2506 53.5052 47.2406 38.4998C63.7541 28.9658 82.1705 27.3157 96.4538 32.6602C96.3985 32.6891 96.3431 32.7182 96.2877 32.7475C94.7844 33.5427 93.7676 35.7088 93.1934 36.9319C92.9419 37.4676 92.7754 37.8224 92.69 37.8019C92.6107 37.7829 92.62 37.4402 92.6337 36.9291C92.6686 35.6345 92.7325 33.2596 91.4604 32.3282C89.6288 30.9872 87.1915 31.1944 85.4653 32.8122C83.9066 34.2731 83.6798 36.1089 84.3717 38.024C84.6929 38.9128 85.6023 39.5519 86.3167 40.0539C86.8113 40.4015 87.2125 40.6833 87.2601 40.9369C87.3767 41.5567 84.9857 49.5788 84.9857 49.5788C84.2256 48.4829 83.334 47.483 81.9516 47.2081C80.3021 46.88 78.8253 46.7386 77.2408 47.4086C76.0903 47.8951 76.0809 48.9517 76.0716 49.9869C76.0621 51.0392 76.0529 52.0693 74.8456 52.4559C74.6871 52.5066 74.5346 52.5592 74.3862 52.6103C73.6248 52.8726 72.9719 53.0976 72.1778 52.851C70.9667 52.4749 70.8133 51.3143 70.6497 50.0775C70.5224 49.1147 70.3889 48.1056 69.7457 47.3845C68.0097 45.4382 66.1993 44.3573 63.5473 45.0085C61.4577 45.5216 60.4612 46.4498 59.4191 48.308C58.6791 49.6275 59.2338 50.8359 59.7673 51.9981C60.3379 53.2412 60.8843 54.4315 59.7958 55.6483C59.2268 56.2843 58.2646 56.7687 57.5151 57.146C56.9811 57.4148 56.555 57.6293 56.456 57.8056C56.3321 58.0261 56.2143 58.2344 56.1025 58.4322C54.4965 61.2734 54.1181 61.9429 54.264 65.7128C54.3041 66.7486 55.7354 67.857 57.1135 68.9242C58.7748 70.2108 60.3587 71.4374 59.3341 72.4045C58.1097 73.5603 56.437 73.7773 54.8158 73.9877C53.4007 74.1713 52.0249 74.3498 51.0207 75.1431C49.2181 76.567 49.7777 79.0929 51.147 80.7957C51.6858 81.4657 52.2627 81.443 52.8383 81.4204C53.4155 81.3977 53.9914 81.3751 54.5264 82.051C56.2332 84.2075 55.5872 87.3203 53.7997 89.5703C53.0823 90.4733 52.0372 90.7692 51.016 91.0584C49.885 91.3787 48.7834 91.6906 48.1888 92.8097C47.455 94.1911 47.665 95.2005 47.9484 96.5624C47.9923 96.7732 48.0379 96.9924 48.0821 97.2228C48.2717 98.212 48.7714 98.8704 49.3083 99.4922C49.3083 99.4922 43.3562 106.593 43.0289 107.698C42.854 108.288 44.086 114.535 45.2717 120.227Z" fill="#7504FB"/>
<path d="M50.6774 108.092C50.6774 108.092 51.3334 103.98 50.9581 102.204C50.6995 100.981 49.9752 100.265 49.3083 99.4922M128.489 56.7544C127.675 55.3442 125.267 55.6376 123.58 56.6114C121.434 57.8506 119.743 60.3395 118.064 58.6814C116.381 57.0206 120.09 54.9886 119.498 52.6998C119.186 51.4957 118.966 50.303 117.769 49.8896C113.549 48.4326 110.73 46.7667 108.571 47.4126C107.644 47.6896 106.403 47.891 106.269 49.2C106.045 51.3953 109.134 51.2103 108.106 53.6359C107.326 55.4782 106.613 57.5968 104.679 57.1324C102.745 56.668 102.383 54.404 101.797 52.6116C101.168 50.685 101.889 49.1287 101.583 47.0665C101.301 45.1677 99.7955 44.7649 98.7791 44.5622C97.2134 44.25 96.5189 45.3857 95.2436 46.4047C93.7761 47.5773 94.0698 49.0009 93.3208 50.2631M128.489 56.7544C129.084 57.785 129.813 62.3906 129.813 62.3906M128.489 56.7544C128.489 56.7544 136.902 54.1877 137.643 54.2177M84.9857 49.5788C84.2256 48.4829 83.334 47.483 81.9517 47.2081C80.3021 46.88 78.3393 46.3134 77.2409 47.4086C75.4621 49.1821 77.8261 52.267 75.4312 53.0339C74.4596 53.345 73.1267 53.1457 72.1778 52.851C70.024 52.1822 71.3763 49.3028 70.1489 47.1769C68.8476 44.923 66.1993 44.3573 63.5474 45.0085C61.4577 45.5216 60.2947 46.1983 59.2526 48.0565C57.7211 50.7875 61.9019 53.294 59.7958 55.6484C58.8215 56.7375 58.3841 56.6924 56.456 57.8056C53.2035 59.6834 53.4188 61.7926 54.264 65.7128C55.0871 69.5301 61.2086 70.6353 59.3342 72.4046C57.0409 74.5691 53.1754 73.4411 51.0208 75.1431C49.2181 76.5671 48.6235 78.7566 49.9929 80.4594C51.5496 82.3952 53.0141 80.519 54.5264 82.051C56.4625 84.0124 55.5872 87.3203 53.7998 89.5703C52.2879 91.4734 49.3202 90.6802 48.1889 92.8098C47.3414 94.405 47.4918 95.1979 47.8213 96.9166C48.0108 97.9058 48.7714 98.8704 49.3083 99.4922M84.9857 49.5788C86.294 51.465 87.2126 53.6358 89.5731 52.8849C90.5817 52.5641 91.6306 51.8614 92.469 51.2129C92.8577 50.9123 93.1249 50.5932 93.3208 50.2631M84.9857 49.5788C84.9857 49.5788 87.3767 41.5567 87.2602 40.9369C87.1436 40.3171 84.9152 39.5282 84.3718 38.0241C83.6799 36.1089 83.9066 34.2731 85.4653 32.8122C87.1915 31.1944 89.6289 30.9872 91.4604 32.3282C93.2348 33.6273 92.4099 37.7347 92.6901 37.802C92.9702 37.8692 94.1259 33.891 96.2878 32.7475C98.0312 31.8254 99.7236 31.0708 101.261 32.1662C102.635 33.1447 102.605 34.603 102.439 36.2958C102.083 39.9243 94.8718 41.5808 94.609 41.9616C94.3462 42.3424 93.3208 50.2631 93.3208 50.2631M49.3083 99.4922C49.3083 99.4922 43.3562 106.593 43.0289 107.698M43.0289 107.698C42.7379 108.681 46.3439 125.332 47.1481 129.017C47.2426 129.45 47.5991 129.757 48.0415 129.782C86.2976 131.929 146.52 91.6412 152.354 67.4983C152.437 67.1523 152.321 66.8122 152.056 66.5743C149.709 64.4642 138.308 54.2446 137.643 54.2177M43.0289 107.698C43.0289 107.698 48.5961 109.399 58.8076 106.604C74.646 102.269 92.6118 90.7516 92.6118 90.7516M137.643 54.2177C129.959 62.721 124.953 67.1498 115.494 74.7921M65.8518 94.9793C65.8518 94.9793 64.58 93.1944 66.566 89.5285C67.3369 88.1056 63.5989 88.8748 63.152 87.3771C62.8364 86.3194 63.0377 85.4923 63.6901 84.5472C64.4786 83.4049 68.6762 81.8975 69.5465 80.4789C70.4397 79.0229 69.7015 77.7031 68.8301 76.3121C68.0358 75.0443 66.6786 75.0968 66.321 73.6383C65.7627 71.3613 70.9104 70.3015 70.9104 70.3015M67.9429 60.5636C67.9429 60.5636 69.496 58.1082 68.7264 56.9049C68.3036 56.2438 67.2028 57.3835 66.257 57.6436C64.8968 58.0176 63.671 57.7625 63.671 57.7625M82.6828 58.9243C82.6828 58.9243 78.6875 58.3197 76.886 59.7518C75.5932 60.7794 76.153 61.7494 75.9214 63.515C75.7091 65.1338 75.6664 66.9759 77.1635 66.9203C79.1245 66.8475 78.5215 64.1806 80.4686 63.867C81.9397 63.63 83.2355 63.6436 84.1281 65.1896C84.7477 66.2628 84.0512 67.5747 85.2536 67.9751C86.6815 68.4505 87.2215 65.6405 88.6926 65.9896C90.243 66.3576 90.495 69.5294 90.495 69.5294M81.5243 81.5794C81.5243 81.5794 83.2063 82.4993 83.835 83.9097C84.3156 84.9878 83.5578 86.3951 84.3357 87.285C85.7251 88.8743 86.9064 83.5816 88.9723 82.7759C90.6396 82.1255 91.5641 83.6891 93.2393 83.0606C94.0786 82.7457 94.6807 82.6124 95.2302 81.9111C96.1688 80.7132 94.9923 78.1551 94.9923 78.1551M98.5504 69.6881C98.9848 69.4373 100.718 69.1236 101.498 69.3602C102.279 69.5969 100.82 73.4561 102.53 74.4904C105.2 76.1061 106.14 67.3676 106.14 67.3676M51.0515 117.832C51.0706 119.14 51.1391 119.849 51.4531 121.035M55.0308 122.634C54.9526 123.759 55.0175 124.303 55.2691 125.137M59.1729 116.578C59.5254 117.874 59.6785 118.599 59.7367 119.917" stroke="#090E24" stroke-width="5" stroke-linecap="round"/>
</svg>
