<svg width="248" height="280" viewBox="0 0 248 280" fill="none" xmlns="http://www.w3.org/2000/svg">
<path d="M58.3631 48.8389C66.6808 42.6694 92.9474 41.7881 100.827 48.8389M58.3631 48.8389V65.5847C68.4319 71.7542 91.2539 71.7492 100.827 66.4661V48.8389M58.3631 48.8389C70.183 54.5678 91.3781 55.2584 100.827 48.8389M6.41955 129.042C7.72199 118.018 9.41309 108.279 11.521 100.398C13.289 93.7882 33.6137 76.7188 52.2342 69.1102C62.3031 77.9237 91.1963 81.4492 108.27 70.8729C124.067 80.8689 130.342 87.424 138.038 100.398C145.735 113.373 141.103 263.449 141.103 263.449C116.587 281.076 33.4094 282.398 5.3921 262.127C4.42026 249.189 3.73027 235.644 3.34853 222.026M6.41955 129.042C22.8243 135.049 40.693 136.294 82.4404 136.093V229.958C75.572 233.258 65.3639 234.596 54.4227 234.453M6.41955 129.042C4.14323 148.311 3.05409 171.509 3.00197 195.585M3.34853 222.026C3.10095 213.194 2.98303 204.331 3.00197 195.585M3.34853 222.026C12.5501 229.114 34.6799 234.196 54.4227 234.453M108.27 88.9407C111.417 90.4803 112.804 92.1396 115.274 95.1102M108.27 100.398C110.715 103.91 112.31 105.028 115.274 106.568M127.969 235.687C128.707 237.82 128.851 239.368 127.969 243.619M117.9 255.517C121.229 255.804 122.822 254.721 125.78 253.314M15.0228 245.822C14.5212 247.973 14.5586 249.535 15.0228 253.314M3.00197 195.585C10.6346 193.021 13.7908 189.868 17.6495 181.483M17.6495 181.483C17.6495 181.483 20.5594 186.599 23.7784 187.653C26.1242 188.421 30.0094 178.401 31.1132 173.11M17.6495 181.483C17.6495 181.483 14.4802 177.623 16.7739 175.314C18.0873 173.992 28.5939 167.574 31.2206 170.026C31.5285 170.313 31.4513 171.49 31.1132 173.11M31.1132 173.11C31.1132 173.11 48.2938 172.229 50.0449 173.11C51.796 173.992 49.6072 181.483 51.796 182.365C52.8363 182.783 67.0239 181.517 66.6804 183.246C62.3027 205.28 49.839 199.551 50.0449 202.636C50.2508 205.72 51.7659 222.056 54.4227 234.453M39.1005 183.246V185.89M176.125 141.381C184.442 135.212 208.52 133.449 216.4 140.5M176.125 141.381V153.28C187.945 160.331 205.893 159.89 216.4 153.28V140.5M176.125 141.381C187.945 147.11 206.951 146.92 216.4 140.5M169.996 171.788C168.361 173.527 167.529 174.55 166.493 176.636M172.622 182.365L169.996 185.009M231.722 247.585C232.924 251.538 233.195 253.091 233.473 255.517M219.464 258.161C222.324 258.61 223.708 258.784 226.031 259.042M165.618 36.9404C168.022 40.5545 168.13 42.5805 165.618 46.1946M169.996 159.89C180.065 168.703 206.331 169.585 223.404 159.009C225.593 157.653 237.568 168.832 241.791 178.398C243.542 182.365 246.798 260.364 243.542 263.449C236.1 270.5 175.249 278.873 155.549 262.127C150.725 258.027 154.674 181.924 155.549 178.398C157.764 169.481 168.989 159.009 169.996 159.89ZM159.051 20.6355C147.686 20.5152 138.038 29.4654 138.038 40.9067C138.038 52.3481 147.686 61.2982 159.051 61.178C170.294 61.059 179.627 52.2246 179.627 40.9067C179.627 29.5889 170.294 20.7545 159.051 20.6355ZM201.953 3.00813C195.308 2.76021 189.696 8.21238 189.696 14.9064C189.695 21.3572 194.674 26.5658 201.078 26.8048C207.723 27.0527 213.335 21.6005 213.336 14.9064C213.336 8.45572 208.357 3.24705 201.953 3.00813ZM204.936 52.3641C196.735 52.2895 189.44 58.6555 189.696 66.9065C189.944 74.9247 196.967 80.6397 204.936 80.5675C212.825 80.4961 219.656 74.8448 219.902 66.9065C220.156 58.7331 213.059 52.438 204.936 52.3641ZM226.907 198.561V230.432C226.907 230.921 226.546 231.34 226.063 231.419C204.394 234.955 191.994 234.773 170.786 230.132C170.328 230.032 169.996 229.624 169.996 229.155V199.822C169.996 199.213 170.541 198.747 171.144 198.831C192.485 201.795 204.85 201.563 225.708 197.579C226.326 197.461 226.907 197.932 226.907 198.561Z" stroke="#7504FB" stroke-opacity="0.54" stroke-width="5" stroke-linecap="round"/>
</svg>
