<svg width="19" height="20" viewBox="0 0 19 20" fill="none" xmlns="http://www.w3.org/2000/svg">
<path d="M6.68062 1.32322C4.44423 2.08925 2.53687 3.76526 1.4778 5.87826C1.10764 6.6083 0.840299 7.38461 0.680924 8.18663C0.274774 10.1814 0.557537 12.3047 1.4778 14.1246C2.07417 15.3122 2.93274 16.3662 3.97125 17.1888C4.9532 17.9702 6.09453 18.546 7.30784 18.8699C8.83476 19.2812 10.4645 19.2709 12.0068 18.9213C13.4001 18.6026 14.7162 17.9342 15.765 16.9677C16.8755 15.9446 17.6672 14.6028 18.0888 13.1581C18.5463 11.5798 18.608 9.89863 18.3201 8.28431C15.4411 8.28431 12.5621 8.28431 9.6779 8.28431C9.6779 9.47706 9.6779 10.6749 9.6779 11.8677C11.3436 11.8677 13.0145 11.8677 14.6802 11.8677C14.4849 13.0142 13.8062 14.0578 12.8397 14.7056C12.233 15.1117 11.539 15.3791 10.8192 15.5025C10.0943 15.6258 9.34887 15.6413 8.62911 15.4973C7.89393 15.3534 7.19474 15.0449 6.58294 14.613C5.60613 13.9293 4.86066 12.9216 4.48022 11.7957C4.08949 10.6492 4.08435 9.36909 4.48022 8.22262C4.7527 7.41546 5.21026 6.66486 5.81177 6.0582C6.55209 5.29732 7.51349 4.7575 8.55199 4.53643C9.44141 4.34621 10.3771 4.38219 11.2459 4.64439C11.9863 4.8706 12.6649 5.27161 13.2253 5.80629C13.7908 5.2459 14.3512 4.68038 14.9167 4.12C15.2098 3.81667 15.5234 3.52877 15.8113 3.21516C14.9578 2.42342 13.9502 1.78592 12.8551 1.38491C10.8912 0.649733 8.6651 0.634309 6.68062 1.32322Z" fill="white"/>
<path d="M6.6801 1.32302C8.66458 0.634109 10.8907 0.649533 12.8649 1.37957C13.9599 1.78058 14.9625 2.41808 15.821 3.20982C15.5331 3.51828 15.2247 3.81133 14.9265 4.11465C14.361 4.67504 13.8006 5.24056 13.235 5.80094C12.6747 5.26627 11.996 4.86012 11.2557 4.63905C10.3869 4.37685 9.45117 4.34086 8.56176 4.53109C7.52325 4.75215 6.56186 5.29711 5.82154 6.05286C5.22002 6.65951 4.76246 7.41012 4.48998 8.21728C3.48746 7.44096 2.48494 6.65951 1.48242 5.8832C2.53635 3.76506 4.44371 2.08905 6.6801 1.32302Z" fill="#E94435"/>
<path d="M0.680924 8.18645C0.840299 7.38443 1.11278 6.60812 1.4778 5.87808C2.48032 6.65439 3.48284 7.43584 4.48536 8.21216C4.08949 9.35863 4.09463 10.6388 4.48536 11.7852C3.48284 12.5616 2.48032 13.343 1.4778 14.1193C0.557537 12.3096 0.274774 10.1812 0.680924 8.18645Z" fill="#F8BB15"/>
<path d="M9.68344 8.27899C12.5625 8.27899 15.4415 8.27899 18.3257 8.27899C18.6136 9.89331 18.5519 11.5745 18.0943 13.1528C17.6728 14.5974 16.881 15.9444 15.7705 16.9624C14.7989 16.2066 13.822 15.4509 12.8555 14.6951C13.822 14.0525 14.5007 13.0037 14.696 11.8572C13.0303 11.8572 11.3594 11.8572 9.69372 11.8572C9.6783 10.6696 9.68344 9.47687 9.68344 8.27899Z" fill="#547DBE"/>
<path d="M1.47754 14.1244C2.48006 13.3481 3.48258 12.5667 4.4851 11.7904C4.86554 12.9214 5.61101 13.9239 6.58782 14.6077C7.19962 15.0396 7.89881 15.3429 8.63399 15.492C9.35375 15.6359 10.1044 15.6205 10.8241 15.4971C11.5439 15.3737 12.2379 15.1064 12.8446 14.7003C13.8163 15.456 14.7931 16.2117 15.7596 16.9675C14.7108 17.9392 13.3947 18.6024 12.0014 18.9211C10.4642 19.2707 8.8345 19.281 7.30244 18.8697C6.08913 18.5458 4.9478 17.97 3.96585 17.1886C2.93248 16.3608 2.07391 15.3069 1.47754 14.1244Z" fill="#34A751"/>
</svg>
