<svg width="78" height="44" viewBox="0 0 78 44" fill="none" xmlns="http://www.w3.org/2000/svg">
<path d="M31.5933 16.75C32.789 16.0596 33.1987 14.5307 32.5083 13.3349C31.818 12.1392 30.289 11.7295 29.0933 12.4199C27.8976 13.1102 27.4879 14.6392 28.1782 15.8349C28.8686 17.0307 30.3976 17.4403 31.5933 16.75Z" stroke="#7504FB" stroke-width="2" stroke-linecap="round" stroke-linejoin="round"/>
<path d="M13.4068 27.25C14.6025 26.5596 15.0122 25.0307 14.3218 23.8349C13.6315 22.6392 12.1025 22.2295 10.9068 22.9199C9.71103 23.6102 9.30134 25.1392 9.9917 26.3349C10.6821 27.5307 12.211 27.9403 13.4068 27.25Z" stroke="#7504FB" stroke-width="2" stroke-linecap="round" stroke-linejoin="round"/>
<path d="M15.6028 19.0539C16.7985 18.3635 17.2082 16.8345 16.5179 15.6388C15.8275 14.4431 14.2985 14.0334 13.1028 14.7237C11.9071 15.4141 11.4974 16.9431 12.1877 18.1388C12.8781 19.3345 14.4071 19.7442 15.6028 19.0539Z" stroke="#7504FB" stroke-width="2" stroke-linecap="round" stroke-linejoin="round"/>
<path d="M23.3971 14.5539C24.5929 13.8635 25.0025 12.3345 24.3122 11.1388C23.6218 9.94306 22.0929 9.53337 20.8971 10.2237C19.7014 10.9141 19.2917 12.4431 19.9821 13.6388C20.6724 14.8345 22.2014 15.2442 23.3971 14.5539Z" stroke="#7504FB" stroke-width="2" stroke-linecap="round" stroke-linejoin="round"/>
<path d="M30.2194 21.5703C28.7833 21.589 27.398 21.0402 26.3643 20.0432V20.0432C25.6614 19.3651 24.7568 18.9341 23.7873 18.8153C22.8178 18.6965 21.836 18.8964 20.9901 19.3848C20.1443 19.8732 19.4802 20.6235 19.0984 21.5225C18.7165 22.4215 18.6374 23.4203 18.8732 24.3682C19.2199 25.7618 19.0025 27.236 18.2682 28.4703C17.8054 29.2279 17.6078 30.1181 17.7066 31.0004C17.8054 31.8827 18.1949 32.7071 18.8138 33.3437C19.4327 33.9802 20.2458 34.3928 21.125 34.5164C22.0042 34.64 22.8995 34.4676 23.6699 34.0263C24.1346 33.7584 24.5414 33.4008 24.8668 32.9744C25.5846 32.0382 26.48 31.2528 27.5016 30.6629C28.5232 30.0731 29.6511 29.6905 30.8207 29.5369C31.3527 29.4683 31.8658 29.2948 32.3302 29.0263C33.0975 28.5797 33.6945 27.8906 34.0271 27.0674C34.3597 26.2442 34.4089 25.3337 34.1671 24.4795C33.9252 23.6252 33.406 22.8757 32.6913 22.349C31.9766 21.8222 31.1069 21.5483 30.2194 21.5703Z" stroke="#7504FB" stroke-width="2" stroke-linecap="round" stroke-linejoin="round"/>
<path d="M45.6448 27.5V15.8636H50.0084C50.9024 15.8636 51.6524 16.0303 52.2584 16.3636C52.8683 16.697 53.3285 17.1553 53.6391 17.7386C53.9535 18.3182 54.1107 18.9773 54.1107 19.7159C54.1107 20.4621 53.9535 21.125 53.6391 21.7045C53.3247 22.2841 52.8607 22.7405 52.2471 23.0739C51.6334 23.4034 50.8778 23.5682 49.98 23.5682H47.088V21.8352H49.6959C50.2187 21.8352 50.6467 21.7443 50.98 21.5625C51.3134 21.3807 51.5596 21.1307 51.7187 20.8125C51.8815 20.4943 51.963 20.1288 51.963 19.7159C51.963 19.303 51.8815 18.9394 51.7187 18.625C51.5596 18.3106 51.3115 18.0663 50.9743 17.892C50.641 17.714 50.2111 17.625 49.6846 17.625H47.7528V27.5H45.6448ZM58.2059 27.6761C57.6528 27.6761 57.1547 27.5777 56.7116 27.3807C56.2722 27.1799 55.9237 26.8845 55.6661 26.4943C55.4123 26.1042 55.2854 25.6231 55.2854 25.0511C55.2854 24.5587 55.3763 24.1515 55.5581 23.8295C55.74 23.5076 55.9881 23.25 56.3025 23.0568C56.6169 22.8636 56.971 22.7178 57.365 22.6193C57.7627 22.517 58.1737 22.4432 58.5979 22.3977C59.1093 22.3447 59.5241 22.2973 59.8422 22.2557C60.1604 22.2102 60.3915 22.142 60.5354 22.0511C60.6832 21.9564 60.757 21.8106 60.757 21.6136V21.5795C60.757 21.1515 60.6301 20.8201 60.3763 20.5852C60.1225 20.3504 59.757 20.233 59.2797 20.233C58.776 20.233 58.3763 20.3428 58.0809 20.5625C57.7892 20.7822 57.5922 21.0417 57.49 21.3409L55.5695 21.0682C55.721 20.5379 55.971 20.0947 56.3195 19.7386C56.668 19.3788 57.0941 19.1098 57.5979 18.9318C58.1017 18.75 58.6585 18.6591 59.2684 18.6591C59.6888 18.6591 60.1074 18.7083 60.5241 18.8068C60.9407 18.9053 61.3214 19.0682 61.6661 19.2955C62.0108 19.5189 62.2873 19.8239 62.4957 20.2102C62.7078 20.5966 62.8138 21.0795 62.8138 21.6591V27.5H60.8366V26.3011H60.7684C60.6434 26.5436 60.4672 26.7708 60.24 26.983C60.0165 27.1913 59.7343 27.3598 59.3934 27.4886C59.0563 27.6136 58.6604 27.6761 58.2059 27.6761ZM58.74 26.1648C59.1528 26.1648 59.5108 26.0833 59.8138 25.9205C60.1169 25.7538 60.3498 25.5341 60.5127 25.2614C60.6794 24.9886 60.7627 24.6913 60.7627 24.3693V23.3409C60.6983 23.3939 60.5885 23.4432 60.4331 23.4886C60.2816 23.5341 60.1112 23.5739 59.9218 23.608C59.7324 23.642 59.5449 23.6723 59.3593 23.6989C59.1737 23.7254 59.0127 23.7481 58.8763 23.767C58.5695 23.8087 58.2949 23.8769 58.0525 23.9716C57.81 24.0663 57.6188 24.1989 57.4786 24.3693C57.3385 24.536 57.2684 24.7519 57.2684 25.017C57.2684 25.3958 57.4066 25.6818 57.6832 25.875C57.9597 26.0682 58.3119 26.1648 58.74 26.1648ZM66.6832 27.5L64.2172 18.7727H66.3138L67.8479 24.9091H67.9275L69.4956 18.7727H71.5695L73.1377 24.875H73.2229L74.7343 18.7727H76.8366L74.365 27.5H72.2229L70.5866 21.6023H70.4672L68.8309 27.5H66.6832Z" fill="#7504FB"/>
</svg>
