<svg width="34" height="33" viewBox="0 0 34 33" fill="none" xmlns="http://www.w3.org/2000/svg">
<path d="M23.8191 12.4548C24.7159 11.937 25.0232 10.7903 24.5054 9.89351C23.9876 8.99671 22.8409 8.68945 21.9441 9.20721C21.0473 9.72498 20.74 10.8717 21.2578 11.7685C21.7756 12.6653 22.9223 12.9726 23.8191 12.4548Z" stroke="#7504FB" stroke-width="2" stroke-linecap="round" stroke-linejoin="round"/>
<path d="M10.1795 20.3298C11.0763 19.812 11.3835 18.6653 10.8658 17.7685C10.348 16.8717 9.20126 16.5644 8.30446 17.0822C7.40766 17.6 7.1004 18.7467 7.61816 19.6435C8.13593 20.5403 9.28266 20.8476 10.1795 20.3298Z" stroke="#7504FB" stroke-width="2" stroke-linecap="round" stroke-linejoin="round"/>
<path d="M11.8269 14.1827C12.7237 13.6649 13.031 12.5182 12.5132 11.6214C11.9955 10.7246 10.8487 10.4173 9.95192 10.9351C9.05512 11.4529 8.74786 12.5996 9.26562 13.4964C9.78339 14.3932 10.9301 14.7005 11.8269 14.1827Z" stroke="#7504FB" stroke-width="2" stroke-linecap="round" stroke-linejoin="round"/>
<path d="M17.6726 10.8077C18.5694 10.2899 18.8767 9.14319 18.3589 8.24639C17.8412 7.34959 16.6944 7.04232 15.7976 7.56009C14.9008 8.07786 14.5936 9.22459 15.1113 10.1214C15.6291 11.0182 16.7758 11.3255 17.6726 10.8077Z" stroke="#7504FB" stroke-width="2" stroke-linecap="round" stroke-linejoin="round"/>
<path d="M22.7899 16.07C21.7129 16.0841 20.6739 15.6725 19.8987 14.9247V14.9247C19.3714 14.4161 18.6931 14.0929 17.9659 14.0038C17.2388 13.9147 16.5024 14.0646 15.868 14.4309C15.2336 14.7972 14.7356 15.3599 14.4492 16.0342C14.1628 16.7084 14.1035 17.4576 14.2803 18.1684C14.5404 19.2137 14.3773 20.3193 13.8266 21.245C13.4795 21.8133 13.3313 22.4809 13.4054 23.1426C13.4795 23.8043 13.7716 24.4226 14.2358 24.9001C14.6999 25.3775 15.3098 25.6869 15.9692 25.7796C16.6286 25.8723 17.3001 25.743 17.8779 25.412C18.2264 25.2111 18.5315 24.9429 18.7755 24.6231C19.3139 23.921 19.9854 23.3319 20.7516 22.8895C21.5178 22.4471 22.3638 22.1602 23.241 22.045C23.64 21.9936 24.0248 21.8634 24.373 21.662C24.9486 21.3271 25.3963 20.8102 25.6457 20.1928C25.8952 19.5754 25.9321 18.8926 25.7507 18.2519C25.5693 17.6112 25.18 17.0491 24.6439 16.654C24.1079 16.259 23.4556 16.0535 22.7899 16.07Z" stroke="#7504FB" stroke-width="2" stroke-linecap="round" stroke-linejoin="round"/>
</svg>
