<svg width="21" height="20" viewBox="0 0 21 20" fill="none" xmlns="http://www.w3.org/2000/svg">
<path d="M10.5 0C4.97714 0 0.5 4.47714 0.5 10C0.5 15.5229 4.97714 20 10.5 20C16.0229 20 20.5 15.5229 20.5 10C20.5 4.47714 16.0229 0 10.5 0ZM14.8521 14.5127C14.725 14.7303 14.4961 14.8516 14.2611 14.8517C14.1439 14.8517 14.0252 14.8215 13.9167 14.7581C12.1197 13.7079 10.0437 13.5391 8.61824 13.5825C7.03924 13.6305 5.88129 13.9422 5.86979 13.9454C5.5058 14.0448 5.12965 13.8306 5.0298 13.4667C4.93 13.1028 5.14345 12.7269 5.50725 12.6267C5.55944 12.6123 6.8055 12.2739 8.53826 12.2167C9.55891 12.183 10.5415 12.2542 11.4583 12.4281C12.6195 12.6484 13.6788 13.035 14.6068 13.5773C14.9329 13.7679 15.0427 14.1867 14.8521 14.5127ZM16.1235 11.8723C15.9729 12.13 15.7018 12.2737 15.4233 12.2738C15.2845 12.2738 15.1439 12.2381 15.0154 12.163C12.8868 10.919 10.4277 10.7191 8.73927 10.7704C6.86887 10.8274 5.49724 11.1966 5.48363 11.2003C5.05258 11.3179 4.60694 11.0644 4.48866 10.6333C4.37044 10.2022 4.62331 9.757 5.05422 9.63826C5.11604 9.62123 6.59201 9.2203 8.64452 9.15263C9.85359 9.11278 11.0174 9.19701 12.1034 9.40302C13.4789 9.66398 14.7336 10.122 15.8328 10.7643C16.2191 10.99 16.3492 11.4861 16.1235 11.8723ZM16.905 9.47153C16.7347 9.47153 16.5622 9.42776 16.4046 9.33563C11.3441 6.37818 4.7796 8.13638 4.71389 8.15453C4.18482 8.3003 3.63788 7.98958 3.49215 7.46055C3.34638 6.93152 3.6571 6.38454 4.18613 6.23881C4.26194 6.21791 6.07238 5.72615 8.58999 5.64314C10.0731 5.59432 11.5006 5.69758 12.8327 5.95026C14.5199 6.27033 16.059 6.8321 17.4072 7.62003C17.881 7.89689 18.0406 8.50537 17.7637 8.97912C17.579 9.29527 17.2465 9.47153 16.905 9.47153Z" fill="#00D95F"/>
</svg>
