<svg width="200" height="200" viewBox="0 0 200 200" fill="none" xmlns="http://www.w3.org/2000/svg">
<path fill-rule="evenodd" clip-rule="evenodd" d="M108.449 164.064C108.851 146.383 109.365 114.729 108.508 94.228C116.428 92.5723 121.759 91.3123 128.904 85.4395C132.792 82.244 134.465 78.2934 136.101 74.4281C137.896 70.19 139.647 66.0547 144.226 63.1302C144.563 62.915 144.898 62.7038 145.231 62.497C146.117 62.739 147.05 62.8634 148.005 62.8547C151.845 62.82 155.284 60.6702 156.691 57.3773C160.311 56.6036 164.065 56.7489 168.304 58.1725C178.261 61.5166 182.575 69.0985 184.994 79.3802C187.457 89.8463 182.577 110.123 172.682 126.202C172.314 126.8 171.948 127.387 171.583 127.964C171.392 125.802 171.205 124.373 171.04 123.999C168.4 118.02 160.916 111.033 159.548 111.88C148.878 118.491 132.461 117.94 126.168 112.431C125.539 111.88 118.523 118.425 117.139 123.999C116.756 125.539 115.435 149.244 115.705 164.249C113.401 164.412 111.012 164.364 108.449 164.064ZM155.171 100.313V108.3C148.604 112.431 137.386 112.707 129.999 108.3V100.863C135.197 97.0075 150.246 95.9058 155.171 100.313Z" fill="#7504FB"/>
<path fill-rule="evenodd" clip-rule="evenodd" d="M69.6339 39.9278C64.3094 40.0134 58.9748 41.1127 56.3975 43.0243V53.4905C59.4524 55.3623 64.3855 56.3247 69.338 56.4418C69.1436 57.2775 68.9331 58.1293 68.7098 58.9987C68.5565 59.5953 68.3847 60.1871 68.1949 60.7735C61.6539 60.3291 55.6753 58.4147 52.567 55.6939C40.9292 60.4492 28.2262 71.1176 27.1212 75.249C26.7119 76.7795 26.3276 78.4221 25.9681 80.1661C19.2175 76.9555 15.6767 70.8035 14.5347 61.2021C12.6594 45.4351 27.7788 32.395 34.7815 28.9775C43.8112 24.5707 55.8793 23.1815 64.332 31.7318C66.9852 34.4156 68.6706 37.1147 69.6339 39.9278Z" fill="#7504FB"/>
<path d="M56.3976 43.0243C61.5962 39.1684 78.0128 38.6176 82.9378 43.0243M56.3976 43.0243V53.4905C62.6906 57.3464 76.9543 57.3432 82.9378 54.0413V43.0243M56.3976 43.0243C63.7851 46.6049 77.0319 47.0365 82.9378 43.0243M23.9329 93.1515C24.7469 86.261 25.8038 80.1744 27.1213 75.249C28.2263 71.1176 40.9292 60.4492 52.567 55.6939C58.8601 61.2023 76.9183 63.4057 87.5891 56.7956C97.4625 63.0431 101.385 67.14 106.195 75.249C111.005 83.3579 108.11 177.156 108.11 177.156C92.7875 188.173 40.8016 188.999 23.2907 176.329C22.6833 168.243 22.2521 159.777 22.0135 151.266M23.9329 93.1515C34.1859 96.9058 45.3538 97.6839 71.4459 97.5583V156.224C67.1531 158.286 60.7731 159.123 53.9348 159.033M23.9329 93.1515C22.5102 105.194 21.8295 119.693 21.7969 134.741M22.0135 151.266C21.8587 145.746 21.785 140.207 21.7969 134.741M22.0135 151.266C27.7645 155.696 41.5956 158.872 53.9348 159.033M87.5891 68.0879C89.5564 69.0502 90.4234 70.0872 91.9667 71.9439M87.5891 75.249C89.1175 77.444 90.1144 78.1427 91.9667 79.1049M99.9014 159.804C100.362 161.138 100.453 162.105 99.9014 164.762M93.6083 172.198C95.6887 172.378 96.6847 171.701 98.5333 170.821M29.3099 166.139C28.9964 167.483 29.0198 168.46 29.3099 170.821M21.7969 134.741C26.5673 133.138 28.5399 131.167 30.9516 125.927M30.9516 125.927C30.9516 125.927 32.7703 129.124 34.7821 129.783C36.2483 130.263 38.6766 124.001 39.3664 120.694M30.9516 125.927C30.9516 125.927 28.9708 123.514 30.4044 122.071C31.2252 121.245 37.7918 117.234 39.4335 118.766C39.626 118.946 39.5777 119.681 39.3664 120.694M39.3664 120.694C39.3664 120.694 50.1043 120.143 51.1987 120.694C52.2932 121.245 50.9251 125.927 52.2932 126.478C52.9433 126.74 61.8106 125.948 61.5959 127.029C58.8598 140.8 51.0701 137.219 51.1987 139.147C51.3274 141.075 52.2744 151.285 53.9348 159.033M44.3585 127.029V128.681M129.999 100.863C135.197 97.0075 150.246 95.9058 155.171 100.313M129.999 100.863V108.3C137.386 112.707 148.604 112.431 155.171 108.3V100.313M129.999 100.863C137.386 104.444 149.265 104.325 155.171 100.313M126.168 119.868C125.146 120.954 124.626 121.593 123.979 122.897M127.81 126.478L126.168 128.13M164.747 167.24C165.498 169.711 165.667 170.682 165.841 172.198M157.086 173.851C158.873 174.131 159.738 174.24 161.19 174.401M123.432 35.5877C124.934 37.8466 125.002 39.1128 123.432 41.3716M126.168 112.431C132.461 117.94 148.878 118.491 159.548 111.88C160.916 111.033 168.4 118.02 171.04 123.999C172.135 126.478 174.169 175.228 172.135 177.156C167.483 181.563 129.451 186.796 117.139 176.329C114.124 173.767 116.592 126.202 117.139 123.999C118.523 118.425 125.539 111.88 126.168 112.431ZM119.328 25.3972C112.224 25.322 106.195 30.9159 106.195 38.0667C106.195 45.2176 112.224 50.8114 119.328 50.7362C126.354 50.6619 132.187 45.1403 132.187 38.0667C132.187 30.9931 126.354 25.4716 119.328 25.3972ZM146.142 14.3801C141.988 14.2251 138.481 17.6327 138.48 21.8165C138.48 25.8482 141.592 29.1036 145.594 29.253C149.748 29.4079 153.255 26.0003 153.255 21.8165C153.255 17.7848 150.144 14.5294 146.142 14.3801ZM148.005 45.2276C142.88 45.1809 138.321 49.1597 138.48 54.3166C138.636 59.328 143.025 62.8998 148.005 62.8547C152.936 62.8101 157.206 59.278 157.36 54.3166C157.518 49.2082 153.082 45.2738 148.005 45.2276ZM161.737 137.056V156.202C161.737 156.691 161.379 157.11 160.896 157.188C147.646 159.329 139.93 159.213 126.956 156.397C126.498 156.297 126.168 155.89 126.168 155.421V137.821C126.168 137.212 126.708 136.745 127.311 136.828C140.239 138.598 147.913 138.454 160.544 136.071C161.163 135.954 161.737 136.427 161.737 137.056Z" stroke="#090E24" stroke-width="5" stroke-linecap="round"/>
</svg>
