<svg width="202" height="200" viewBox="0 0 202 200" fill="none" xmlns="http://www.w3.org/2000/svg">
<path fill-rule="evenodd" clip-rule="evenodd" d="M34.5008 53.1141C20.0693 58.624 8.10439 71.8077 9.40193 87.7343C10.4034 100.027 16.1348 106.601 27.0456 109.916V90.3287C27.0456 90.1524 27.0875 89.9861 27.1781 89.8348C33.457 79.3423 51.8291 70.7706 73.5785 65.628C71.3646 60.1799 67.7682 56.411 62.0847 53.1141C52.5022 47.5554 40.9619 50.6472 34.5008 53.1141ZM160.471 132.909C165.421 129.555 169.495 125.696 172.42 121.321C174.368 123.067 176.173 123.956 178.385 124.173C179.156 124.249 179.976 124.243 180.87 124.163C187.11 123.606 190.553 117.968 191.307 111.503C191.534 109.557 191.44 107.516 191.052 105.561C189.927 99.8981 186.327 94.9679 180.87 95.2267C177.513 95.386 175.331 96.4763 173.114 99.1021L173.657 81.7203C173.661 81.5924 173.64 81.4708 173.595 81.3511C171.371 75.472 166.373 70.9545 159.497 67.6433C164.983 63.0659 171.467 60.7641 179.379 61.8983C193.056 63.8592 200.75 81.792 200.75 94.71C200.75 107.628 195.283 119.67 190.064 124.421C182.376 131.421 172.669 135.789 164.965 134.497C163.438 134.241 161.933 133.695 160.471 132.909Z" fill="#7504FB"/>
<path d="M172.42 121.321C150.402 154.245 63.3574 157.976 27.5209 136.848C27.2191 136.67 27.0457 136.35 27.0457 136V130.364M172.42 121.321C172.505 118.616 172.578 116.282 172.646 114.087M172.42 121.321C174.368 123.067 176.173 123.956 178.385 124.173M35.9918 105.303C37.4427 106.018 38.8479 106.688 40.2164 107.313M166.456 93.6766C165.325 95.2123 164.351 96.3054 163.226 97.2061M40.2164 107.313C55.3763 114.242 66.035 115.781 84.4006 115.158C84.9673 115.139 85.4441 115.592 85.4441 116.159V137.236C85.4441 137.739 85.8116 138.163 86.3104 138.223C112.214 141.327 146.9 133.456 158.725 121.603C158.907 121.42 159.001 121.177 159.001 120.918V100.272C159.001 99.8753 159.237 99.5171 159.598 99.3513C161.079 98.6707 162.214 98.0163 163.226 97.2061M40.2164 107.313C44.3173 98.0249 50.6877 92.9399 57.1146 95.4009M60.3452 97.2936C59.2737 96.4396 58.1934 95.8139 57.1146 95.4009M57.1146 95.4009C65.2243 86.7095 75.2789 84.116 82.7106 89.4394M86.6866 93.4182C85.4808 91.7885 84.1445 90.4666 82.7106 89.4394M82.7106 89.4394C93.1044 78.2902 106.606 76.6434 110.993 85.1507M112.283 89.4394C112.064 87.7997 111.623 86.3708 110.993 85.1507M110.993 85.1507C121.587 81.24 133.014 83.5665 136.074 91.3513M136.636 98.3271C137.089 95.6582 136.851 93.3287 136.074 91.3513M136.074 91.3513C148.305 85.3393 160.492 86.9592 163.226 97.2061M95.3843 117.962C100.154 114.619 105.817 114.128 110.155 115.896M117.004 127.005C117.373 121.512 114.398 117.624 110.155 115.896M110.155 115.896C117.668 105.952 131.169 107.313 131.169 115.896M31.7672 128.038V132.172M35.9918 123.905V127.005M38.7254 133.722V136.564M71.5279 121.063H75.2554M79.48 121.063V124.68M159.001 74.8163V77.9166M164.717 79.4668V83.3422M27.0457 121.063V90.3287C27.0457 90.1524 27.0876 89.9861 27.1781 89.8348C44.9908 60.0685 160.132 45.7603 173.595 81.3511C173.64 81.4708 173.661 81.5924 173.657 81.7203C173.612 83.1723 173.312 92.7736 173.114 99.1021M27.0457 121.063L14.9805 124.506C14.6089 124.612 14.2099 124.496 13.9389 124.22C12.9277 123.193 10.3324 120.818 8.15936 121.063C5.08856 121.409 2.13917 123.846 2.69228 127.005C3.01133 128.827 5.32273 129.662 7.28838 130.044C8.21944 130.225 8.68561 131.629 8.05849 132.34C7.00534 133.535 5.98551 135.105 6.17133 136.564C6.53195 139.397 8.64716 141.291 11.3899 141.473C14.4804 141.678 16.426 136.014 16.9575 134.244C17.0547 133.92 17.2987 133.657 17.619 133.549L27.0457 130.364M27.0457 121.063V130.364M173.114 99.1021C175.331 96.4763 177.513 95.386 180.87 95.2267C186.327 94.9679 189.927 99.8981 191.052 105.561M173.114 99.1021C172.928 105.074 172.798 109.241 172.646 114.087M172.646 114.087C172.646 114.087 176.456 112.901 178.385 114.087C181.645 116.092 178.385 124.173 178.385 124.173M178.385 124.173C179.156 124.249 179.976 124.243 180.87 124.163C187.11 123.606 190.553 117.968 191.307 111.503C191.534 109.557 191.44 107.516 191.052 105.561M186.585 97.8103C186.585 97.8103 179.13 102.198 179.13 107.628C179.13 110.212 180.38 112.362 182.858 111.503C185.094 110.728 188.801 104.472 191.052 105.561" stroke="black" stroke-width="5" stroke-linecap="round"/>
</svg>
