<svg width="200" height="200" viewBox="0 0 200 200" fill="none" xmlns="http://www.w3.org/2000/svg">
<path fill-rule="evenodd" clip-rule="evenodd" d="M89.9998 75.1768C89.8879 75.1258 89.7836 75.0992 89.6875 75.0992C55.5705 75.906 28.4375 81.5601 28.4375 89.0626L29.2934 112.314C14.9306 105.745 5 91.6459 5 75.3125C5 52.7033 24.0279 34.375 47.5 34.375C70.9251 34.375 89.9238 52.6301 89.9998 75.1768Z" fill="#7504FB"/>
<path fill-rule="evenodd" clip-rule="evenodd" d="M165.625 142.188L168.42 90.6423C168.432 90.5328 168.438 90.4229 168.438 90.3126C168.438 88.3502 163.588 85.4536 158.628 83.5474C179.196 86.4084 195 103.458 195 124.063C195 146.672 175.972 165 152.5 165C139.305 165 127.515 159.208 119.72 150.12C136.52 148.787 152.621 146.068 165.625 142.188Z" fill="#7504FB"/>
<path d="M168.438 90.3126L165.625 142.188C126.875 153.75 60.625 155 30.3125 140L28.4375 89.0626M168.438 90.3126C168.438 86.5945 151.031 79.5228 148.438 82.1874M168.438 90.3126C168.438 93.125 164.55 95.6776 157.887 97.8126M28.4375 89.0626C28.4375 80.9509 60.1554 75.0001 98.125 75.0001C102.049 75.0001 106.216 75.0423 109.991 75.1892C111.38 77.828 112.317 79.2955 114.347 81.875M28.4375 89.0626C28.4375 92.514 34.1797 95.8005 43.7023 98.4376M28.4375 89.0626C28.902 91.6086 30.1446 92.8155 33.6208 94.6875M33.6208 94.6875C33.6208 86.5758 70.597 80.625 114.347 81.875M33.6208 94.6875C37.2899 96.4713 39.4754 97.3216 43.7023 98.4376M114.347 81.875L120.312 88.125M111.562 104.122C130.862 103.387 147.65 101.093 157.887 97.8126M79.375 103.778C65.1951 102.86 52.7444 100.942 43.7023 98.4376M43.7023 98.4376C43.7023 98.4376 48.6104 91.2813 53.125 91.2501C55.596 91.2329 56.9407 93.3254 59.375 93.7501C62.2629 94.2538 64.5655 94.436 67.1875 93.1251C70.3125 91.5626 70.5386 87.185 75.625 88.7501C79.6875 90.0001 75.625 93.1251 80.3125 92.5001C87.5907 91.5296 89.375 87.8126 96.5625 87.8126C98.9068 87.8126 99.2418 90.9185 101.562 91.2501C102.64 91.404 105.331 89.5569 109.688 88.7501C114.174 87.919 120.312 88.125 120.312 88.125M120.312 88.125C120.312 88.125 100 71.5625 109.062 52.8126C112.07 46.5892 114.099 40.6933 120.938 39.6876C126.528 38.8654 132.983 39.86 138.438 42.3982M120.312 88.125C129.062 96.875 142.318 98.4329 157.718 97.4057M90.9375 97.5001C90.9375 97.5001 93.7121 93.5748 96.5625 95.0001C97.8125 95.6251 97.5 97.5001 100 97.8126C102.942 98.1803 105.625 96.8751 105.625 96.8751M148.438 82.1874C145.312 67.8124 153.438 62.5 149.375 52.8126C147.45 48.2221 143.35 44.6842 138.438 42.3982M148.438 82.1874C150.34 90.9375 151.617 92.9953 157.718 97.4057M157.887 97.8126L157.718 97.4057M138.438 42.3982C138.438 42.3982 148.115 38.3383 154.688 37.8125C162.5 37.1875 167.198 38.0584 165.938 42.3982C165 45.625 162.188 44.6875 156.562 44.6875C149.428 44.6875 138.438 42.3982 138.438 42.3982ZM125.625 79.6875C125.625 79.6875 121.875 73.1922 121.875 66.25C121.875 63.7499 123.163 55.3683 126.562 55C130.261 54.5992 133.355 57.9107 134.062 61.5625C134.483 63.7323 133.125 67.8125 133.125 67.8125M36.5625 122.5C36.196 123.871 36.1836 125.068 36.5625 128.125M48.75 124.062C49.1489 126.164 49.0381 127.328 48.125 129.375M40.3125 131.875C39.971 133.931 40.0114 134.931 40.3125 136.562M154.375 111.562C154.003 113.676 153.982 114.964 154.375 117.5M159.062 104.122C159.399 106.398 159.364 107.524 159.062 109.375M22.1875 67.5C25.4675 68.7466 27.138 69.7246 29.6875 72.1875M32.5 54.375C34.9984 57.6325 36.1023 59.5441 37.5 63.125M49.6875 56.25C49.3381 60.1413 49.3158 62.2086 49.6875 65.625M85 124.062C85 124.062 82.1519 119.504 79.375 119.687C76.4423 119.881 73.9427 122.405 74.375 125.312C74.7883 128.091 80.3125 128.437 80.3125 129.375C80.3125 130.312 74.375 131.108 74.375 134.062C74.375 137.017 77.3585 138.712 80.3125 138.75C83.9407 138.797 86.5625 131.875 86.5625 131.875H110C110 131.875 113.197 137.759 116.562 137.5C119.66 137.262 122.797 134.921 122.188 131.875C121.67 129.286 116.562 129.375 116.562 128.125C116.562 126.875 121.687 126.726 122.188 124.062C122.651 121.593 121.357 119.463 119.062 118.437C115.72 116.944 111.562 124.062 111.562 124.062H85Z" stroke="#090E24" stroke-width="5" stroke-linecap="round"/>
</svg>
