<svg width="200" height="200" viewBox="0 0 200 200" fill="none" xmlns="http://www.w3.org/2000/svg">
<path fill-rule="evenodd" clip-rule="evenodd" d="M48.7656 39.0655C31.9976 44.5228 19.4142 57.0694 19.3763 74.6987C19.3601 82.2279 21.4038 88.0185 25.0753 92.3264C31.0312 75.8706 58.7778 58.0485 87.7433 48.0549C87.2905 47.4417 86.8048 46.8413 86.2856 46.2546C79.9172 39.0577 64.1694 34.0521 48.7656 39.0655ZM92.368 59.5755C64.2877 68.8545 40.8246 86.6205 35.0799 99.3016C39.4581 101.092 44.6051 102.126 50.3297 102.518C68.9947 103.793 83.5757 94.1264 90.0375 76.5741C92.2272 70.6259 93.0702 64.8714 92.368 59.5755ZM111.933 89.3082C112.329 85.2311 113.948 80.8526 118.801 75.949C127.407 67.2544 138.235 61.4605 148.974 62.106C147.253 64.4262 145.098 66.7772 142.581 69.1238C133.958 76.1909 129.336 79.3909 121.32 84.2918C118.306 86.0228 115.164 87.701 111.933 89.3082ZM107 113.047C108.06 113.387 109.059 113.479 109.752 113.333C111.628 112.938 114.118 106.456 113.35 104.581C134.036 95.2308 151.02 81.7411 160.463 65.936C160.532 65.8199 160.576 65.6927 160.593 65.5624C161.152 65.8762 161.708 66.2125 162.261 66.5718C173.023 73.5638 176.864 83.4457 176.331 96.2661C175.706 111.27 165.701 121.897 153.507 132.837C138.711 146.112 131.488 151.947 112.236 156.905C100.693 159.878 91.9135 159.718 84.097 154.404C83.3823 153.919 82.6938 153.392 82.0391 152.827C82.0025 152.146 81.8165 151.492 81.4967 151.154C80.21 149.797 79.3423 147.891 78.6486 145.986C78.3687 145.217 77.3361 145.085 76.7479 145.563C74.9126 140.975 74.9448 135.306 78.1564 128.774C79.3248 126.397 80.775 124.681 82.4237 123.392C80.6064 125.624 80.2541 128.995 81.6126 131.775C82.8634 134.334 87.0133 135.017 89.7429 135.183C90.6443 135.237 91.1938 136.419 90.6519 137.141C89.0049 139.336 86.7738 142.987 87.5532 145.84C88.5314 149.422 90.8055 151.604 94.4317 152.404C100.979 153.85 103.811 138.026 103.811 138.026L134.452 126.774C134.452 126.774 140.981 132.122 145.083 130.524C149.461 128.819 151.779 123.966 150.085 119.584C149.169 117.216 145.973 115.925 143.377 115.252C142.391 114.996 142.103 113.321 142.951 112.756C145.377 111.14 148.291 108.613 148.209 105.831C148.106 102.312 146.548 99.441 143.207 98.3295C139.721 97.1702 137.069 99.1909 134.452 101.768C131.426 104.747 131.013 112.083 131.013 112.083L93.4937 123.96C93.4937 123.96 89.3701 120.996 86.2086 121.209C88.4194 120.274 90.8212 119.698 93.2805 119.109C97.9509 117.99 102.829 116.821 107 113.047ZM151.155 94.0904C153.347 92.1657 154.989 89.3745 155.967 86.7093C156.183 86.1213 157.076 86.1029 157.276 86.6967C158.216 89.5009 159.426 92.5706 161.721 94.0773C162.268 94.4367 162.337 95.6921 161.767 96.0159C158.212 98.0387 157.785 100.808 157.634 104.144C157.604 104.787 156.896 104.912 156.674 104.308C155.636 101.489 153.954 97.1519 151.336 95.5163C150.874 95.228 150.746 94.4494 151.155 94.0904Z" fill="#7504FB"/>
<path d="M24.3958 94.5786C31.9004 63.3215 122.884 25.5003 152.586 45.8174M24.3958 94.5786L33.5494 117.151C33.6885 117.494 34.0059 117.733 34.3745 117.769C57.5344 120.04 81.2872 116.605 102.248 109.071M24.3958 94.5786C26.1411 98.8679 29.4001 101.897 33.7756 103.856M152.586 45.8174C152.735 46.1347 152.867 46.4552 152.983 46.7787M152.586 45.8174L152.983 46.7787M33.7756 103.856C35.6515 83.6386 100.997 41.1288 152.171 56.7574M33.7756 103.856C52.7582 112.353 92.7543 100.694 121.32 84.2919C129.336 79.3909 133.958 76.191 142.581 69.1238C147.057 64.9497 150.392 60.7619 152.171 56.7574M152.171 56.7574C153.731 53.2461 154.095 49.8756 152.983 46.7787M102.248 109.071C103.753 112.381 107.876 113.728 109.752 113.333C111.628 112.938 114.118 106.456 113.349 104.581M102.248 109.071C100.18 105.741 102.456 100.601 106.313 99.8923C109.561 99.2958 111.941 101.143 113.349 104.581M113.349 104.581C134.036 95.2308 151.02 81.7411 160.463 65.936C160.623 65.6673 160.645 65.3394 160.526 65.0501L152.983 46.7787M105.687 130.524C105.687 130.524 106.376 126.053 108.501 125.836C110.399 125.642 110.346 128.997 112.253 128.962C114.624 128.917 113.33 123.757 115.692 123.96C117.329 124.102 117.181 126.652 118.819 126.774C121.221 126.952 119.563 121.808 121.946 121.46C123.516 121.231 125.698 123.023 125.698 123.023M153.837 64.5717L154.15 67.6974M151.336 71.1357L148.834 73.9489M120.382 48.6305L125.072 48.0053M128.199 45.1922L133.201 45.1922M39.0908 113.333L42.2174 113.333M48.4706 113.333L51.2845 113.333M165.093 99.8923L165.718 106.769M162.279 104.308L169.157 100.83M93.4936 123.96C93.4936 123.96 88.2461 120.188 85.0518 121.46C81.106 123.031 79.748 127.96 81.6125 131.775C82.8633 134.334 87.0132 135.017 89.7428 135.183C90.6442 135.238 91.1937 136.419 90.6518 137.141C89.0049 139.336 86.7737 142.987 87.5531 145.84C88.5313 149.422 90.8054 151.604 94.4316 152.404C100.979 153.85 103.811 138.026 103.811 138.026L134.452 126.774C134.452 126.774 140.981 132.122 145.082 130.524C149.461 128.819 151.779 123.966 150.085 119.584C149.169 117.216 145.972 115.925 143.377 115.252C142.391 114.996 142.103 113.321 142.951 112.756C145.377 111.14 148.29 108.613 148.209 105.831C148.106 102.312 146.548 99.441 143.207 98.3295C139.721 97.1702 137.069 99.1909 134.452 101.768C131.426 104.747 131.013 112.083 131.013 112.083L93.4936 123.96ZM155.967 86.7093C154.989 89.3745 153.347 92.1657 151.155 94.0905C150.746 94.4495 150.874 95.2281 151.336 95.5163C153.953 97.1519 155.636 101.489 156.674 104.308C156.896 104.912 157.604 104.787 157.634 104.144C157.785 100.808 158.212 98.0387 161.767 96.0159C162.336 95.6921 162.268 94.4367 161.721 94.0773C159.426 92.5706 158.216 89.5009 157.275 86.6967C157.076 86.1029 156.183 86.1213 155.967 86.7093ZM81.4419 154.94C79.4539 156.537 78.8854 158.508 78.6746 160.785C78.5798 161.809 77.4907 161.996 77.1178 161.037C76.1768 158.617 74.8368 155.68 72.9693 154.089C72.3069 153.524 72.1092 152.19 72.7245 151.575C74.2952 150.004 75.5475 147.996 76.4325 145.976C76.8344 145.058 78.3058 145.044 78.6485 145.986C79.3422 147.891 80.2099 149.797 81.4966 151.154C82.2172 151.914 82.2584 154.285 81.4419 154.94Z" stroke="#090E24" stroke-width="5" stroke-linecap="round"/>
</svg>
