<svg width="200" height="200" viewBox="0 0 200 200" fill="none" xmlns="http://www.w3.org/2000/svg">
<path fill-rule="evenodd" clip-rule="evenodd" d="M111.786 53.9784C107.415 57.6536 103.039 61.3325 95.2512 63.9041C88.7474 66.0517 81.7354 66.5349 75.1387 66.9895C69.3398 67.3892 63.8618 67.7667 59.3321 69.2333C49.6497 72.3681 39.9506 79.1071 37.7806 90.2363C35.6665 101.079 39.5231 108.916 47.4632 116.569C48.3452 117.419 49.2719 118.187 50.2372 118.878C49.5704 116.3 49.1731 113.609 49.077 110.836C48.4034 91.4108 63.4224 74.6105 82.4974 73.5807C83.2205 73.5417 83.9495 73.5253 84.6837 73.5323C94.7993 73.6289 103.791 77.9808 110.125 84.8795C110.602 77.3099 115.294 70.721 122.165 67.9849C124.359 67.111 126.776 66.6301 129.348 66.6359C132.494 66.6429 135.584 67.4842 138.406 68.8737C145.347 72.2908 150.67 79.0234 151.212 84.8176C151.362 86.4223 151.381 88.0003 151.267 89.5323C152.103 89.1205 152.903 88.6294 153.659 88.042C160.99 82.3426 163.654 74.8758 163.654 68.6063C163.654 62.3367 161.78 55.0885 153.659 49.1706C145.538 43.2527 134.606 40.7067 123.362 46.0358C118.483 48.3479 115.136 51.1621 111.786 53.9784ZM120.707 104.45C125.999 107.781 132.518 109.065 138.406 107.075C141.175 106.139 143.495 104.715 145.371 102.918C146.584 103.58 147.885 104.451 149.286 105.597C155.845 110.964 159.593 118.449 155.845 128.167C152.268 137.441 144.993 141.948 140.536 144.71C140.322 144.842 140.115 144.971 139.916 145.095C139.414 145.408 138.858 145.761 138.256 146.143L138.255 146.143C133.61 149.092 126.177 153.811 118.989 155.753C110.868 157.948 100.873 157.634 96.8128 148.23C96.1263 146.64 95.8373 145.136 95.8588 143.69C109.904 138.768 119.803 125.072 119.666 109.269C119.654 107.881 119.566 106.512 119.405 105.165C119.825 104.914 120.26 104.676 120.707 104.45Z" fill="#7504FB"/>
<path d="M138.406 107.075C131.925 109.265 124.68 107.489 119.149 103.384M138.406 107.075C138.406 107.075 134.686 101.83 133.409 97.9837C132.784 96.1029 132.784 93.595 137.157 93.595C141.53 93.595 147.472 99.1166 149.586 96.7298M138.406 107.075C143.867 105.229 147.585 101.483 149.586 96.7298M110.125 84.8795C103.791 77.9808 94.7993 73.6289 84.6837 73.5323C83.9495 73.5253 83.2205 73.5417 82.4973 73.5807M110.125 84.8795C110.755 85.5657 111.359 86.2771 111.935 87.012M110.125 84.8795C110.602 77.3099 115.294 70.7209 122.164 67.9849M119.149 103.384C119.472 105.299 119.648 107.265 119.666 109.269C119.823 127.411 106.754 142.776 89.3688 145.278M119.149 103.384C118.116 97.2678 115.584 91.6679 111.935 87.012M82.4973 73.5807C63.4223 74.6105 48.4034 91.4107 49.077 110.836C49.3873 119.787 52.8366 127.898 58.359 134.034M82.4973 73.5807C82.4973 73.5807 71.2531 87.9524 72.1901 100.805C72.5364 105.554 76.1958 109.057 80.9356 109.269C94.9909 109.896 94.6786 89.5198 111.935 87.012M58.359 134.034C64.848 141.243 74.1992 145.725 84.6837 145.632C86.2748 145.618 87.8385 145.498 89.3688 145.278M58.359 134.034C58.359 134.034 60.7625 124.269 66.2557 121.181C74.0642 116.792 81.248 118.246 85.6207 122.435C92.4922 129.018 85.6207 132.78 89.3688 145.278M57.1978 98.6107L56.2608 104.253M63.7569 100.805L63.1323 104.253M58.359 110.836L57.1978 116.166M99.0513 126.824V131.839M105.61 122.435V126.824M122.164 67.9849C124.359 67.111 126.776 66.6301 129.348 66.6359C132.494 66.6429 135.584 67.4841 138.406 68.8737M122.164 67.9849C126.749 69.0877 122.477 79.8638 126.85 84.8795C128.944 87.282 132.015 87.6168 134.346 85.4446C138.718 81.3694 135.514 69.4495 138.406 68.8737M138.406 68.8737C145.347 72.2908 150.67 79.0234 151.212 84.8176C151.613 89.1007 151.075 93.1939 149.586 96.7298M161.207 93.595C162.8 98.3616 162.833 100.93 160.27 105.194M169.328 92.0276C170.571 95.8708 171 98.0109 170.265 101.745M41.8932 76.3537C39.3916 79.7538 39.0538 81.7646 39.3944 85.4446M31.8983 81.6828C29.4461 85.166 28.9314 87.4152 29.7119 92.0276" stroke="#090E24" stroke-width="5" stroke-linecap="round"/>
</svg>
