<svg width="200" height="200" viewBox="0 0 200 200" fill="none" xmlns="http://www.w3.org/2000/svg">
<path fill-rule="evenodd" clip-rule="evenodd" d="M24.4733 56.25C20.6857 63.7499 16.5688 82.0308 21.9734 97.1875C24.6847 104.791 28.946 110.516 33.5664 115.121L34.1065 88.4376L34.4734 70.3126L57.9109 58.4376L76.6377 64.0626C78.7272 59.8417 81.0737 55.6865 83.6292 51.8751C82.4883 50.6682 81.5221 49.5126 80.9544 48.8109C80.6391 48.4213 80.6756 47.8604 81.03 47.506L90.3845 38.1515C90.5988 37.9372 90.8979 37.8314 91.196 37.886C91.9887 38.0313 93.6353 38.4274 95.0154 39.3751C95.0154 39.3751 106.036 36.8751 113.536 39.3751C114.64 39.743 115.621 40.1452 116.497 40.6251C116.497 40.6251 123.848 39.0626 126.661 39.6876C128.974 40.2016 129.805 42.3363 130.098 44.6876C130.411 47.1876 130.098 53.75 130.098 53.75C130.19 53.7501 130.281 53.7501 130.372 53.7501C131.243 53.7501 132.104 53.7501 133.059 53.7937C133.943 53.8342 134.908 53.9122 136.036 54.0626C138.602 54.4047 139.903 55.899 140.411 58.4376C140.678 59.7723 140.159 61.6899 139.281 63.7501C137.075 68.925 132.598 75.0001 132.598 75.0001L164.161 82.1876V100.313V137.022C173.913 127.83 179.019 119.502 180.098 105.625C181.399 88.8904 174.794 73.4375 168.536 61.25C159.899 44.4298 146.036 35.6441 134.161 30.3125C122.286 24.9809 103.223 21.25 85.7233 21.25C68.2232 21.25 52.9107 28.4376 43.8483 34.0625C34.7858 39.6875 28.2609 48.75 24.4733 56.25Z" fill="#7504FB"/>
<path d="M57.9109 58.4375L34.4734 70.3125M57.9109 58.4375L76.6377 64.0625M57.9109 58.4375V77.3893M34.4734 70.3125L34.1065 88.4375M34.4734 70.3125L57.9109 77.3893M140.098 178.75L33.6463 147.714C33.2124 147.588 32.9172 147.186 32.9264 146.734L33.3474 125.938M140.098 178.75L163.756 161.237C164.011 161.049 164.161 160.751 164.161 160.434V141.25M140.098 178.75V155.938M164.161 82.1875L132.598 75M164.161 82.1875L140.098 95.3125M164.161 82.1875V100.312M132.598 75C132.598 75 137.075 68.9249 139.281 63.75M132.598 75C128.362 76.0908 125.529 76.3226 123.223 75.5771M140.098 95.3125V113.75M140.098 95.3125L121.348 91.6965M140.098 113.75L164.161 100.312M140.098 113.75V155.938M164.161 100.312V141.25M140.098 155.938L164.161 141.25M140.098 155.938L88.694 141.491M95.0153 39.375C93.6353 38.4274 91.9887 38.0312 91.196 37.886C90.8979 37.8313 90.5987 37.9372 90.3844 38.1515L81.03 47.5059C80.6756 47.8603 80.6391 48.4212 80.9543 48.8109C81.5221 49.5125 82.4883 50.6681 83.6291 51.875M95.0153 39.375C95.5115 39.7157 95.9732 40.1277 96.3484 40.625C99.5396 44.8547 95.4109 52.8125 94.1609 54.375C92.606 56.3187 90.0109 56.9613 87.9109 55.625C86.4792 54.7139 84.939 53.2607 83.6291 51.875M95.0153 39.375C95.0153 39.375 106.036 36.875 113.536 39.375C114.64 39.7429 115.621 40.1451 116.497 40.625M117.911 71.4389C119.075 72.8653 120.167 73.9422 121.348 74.6913M122.598 68.4375C118.615 71.4891 115.395 72.9379 110.411 73.6095M104.473 74.0625C106.736 73.9822 108.68 73.8427 110.411 73.6095M133.059 53.7937C133.943 53.8341 134.908 53.9122 136.036 54.0625C138.602 54.4047 139.903 55.8989 140.411 58.4375C140.678 59.7723 140.159 61.6898 139.281 63.75M133.059 53.7937C132.899 59.1583 134.312 61.3139 139.281 63.75M133.059 53.7937C132.005 53.7454 131.065 53.7505 130.098 53.7499M110.411 73.6095C110.411 73.6095 109.398 78.9483 112.286 80.625C116.109 82.8451 121.348 74.6913 121.348 74.6913M121.348 74.6913C121.944 75.0689 122.562 75.3632 123.223 75.5771M83.6291 51.875C77.6008 60.8662 72.7355 71.7702 69.6621 80.9375M123.223 75.5771C123.223 75.5771 124.161 88.125 123.223 90.9375C122.927 91.8257 122.211 91.8503 121.348 91.6965M121.348 91.6965C119.862 91.4318 117.94 90.6379 116.973 92.8125C116.146 94.6736 113.558 101.665 109.92 107.437M69.6621 80.9375C67.4983 87.3918 66.2227 92.9852 66.0549 96.444M69.6621 80.9375L57.9109 77.3893M34.1065 88.4375L33.3474 125.938M34.1065 88.4375L59.4734 94.7947M140.098 115L109.92 107.437M109.92 107.437C108.34 109.945 106.561 112.223 104.643 113.75M94.6524 103.611C95.2612 95.7658 97.938 86.8363 98.2234 85.9375C98.4988 85.0702 87.5984 83.4375 86.3484 84.6875C85.6186 85.4173 81.8002 93.07 78.0019 99.4381M94.6524 103.611L78.0019 99.4381M94.6524 103.611C94.3743 107.194 94.5275 110.55 95.5368 112.812M78.0019 99.4381C75.2941 103.978 72.5966 107.865 71.0359 108.125C68.7397 108.508 67.3808 107.25 66.6723 104.424M66.0549 96.444C66.0422 96.7041 66.0359 96.9521 66.0359 97.1875C66.0359 100.216 66.2238 102.634 66.6723 104.424M66.0549 96.444L59.4734 94.7947M33.3474 125.938L54.4899 131.879M59.4734 94.7947C52.9909 109.71 51.9868 122.959 54.4899 131.879M95.5368 112.812C96.2133 114.329 97.2745 115.354 98.8484 115.625C100.873 115.974 102.821 115.2 104.643 113.75M95.5368 112.812C89.7216 125.454 83.72 133.756 78.1296 138.523M66.6723 104.424C61.5507 116.469 60.199 126.442 61.337 133.803M104.643 113.75C100.259 126.909 94.541 135.986 88.694 141.491M54.4899 131.879C57.7868 143.628 67.1679 147.869 78.1296 138.523M61.337 133.803L78.1296 138.523M61.337 133.803C63.6699 148.893 76.4643 153.006 88.694 141.491M38.8484 118.125V120.938M37.9109 140V143.438M134.473 120.312V123.438M129.161 126.562V130M134.473 130V133.125M156.973 155.312L159.786 153.75M155.098 161.562L157.598 160.312M106.036 50.9375V55.9375M113.536 50.9375V55.9375M151.348 55C156.636 50.1945 159.405 47.9543 163.223 46.5625M156.036 61.25C161.979 60.5858 164.844 60.3984 168.536 60.625M154.161 69.0625C159.199 69.3292 161.764 69.9095 166.036 71.4389M116.497 40.625C118.492 41.7177 119.94 43.2133 121.036 45.625C122.598 49.0625 120.887 52.9892 124.473 53.4375C126.838 53.7331 128.504 53.7491 130.098 53.7499M116.497 40.625C116.497 40.625 123.848 39.0625 126.661 39.6875C128.974 40.2015 129.804 42.3362 130.098 44.6875C130.411 47.1875 130.098 53.7499 130.098 53.7499" stroke="#090E24" stroke-width="5" stroke-linecap="round"/>
</svg>
